<svg t="1724053334979" class="icon" viewBox="0 0 1113 1024" version="1.1" xmlns="http://www.w3.org/2000/svg" p-id="901" width="200" height="200"><path d="M901.12 573.44a40.96 40.96 0 0 0-40.96 40.96v204.8a40.96 40.96 0 0 1-40.96 40.96H122.88a40.96 40.96 0 0 1-40.96-40.96v-204.8a40.96 40.96 0 0 0-81.92 0v204.8a122.88 122.88 0 0 0 122.88 122.88h696.32a122.88 122.88 0 0 0 122.88-122.88v-204.8a40.96 40.96 0 0 0-40.96-40.96z" fill="#d81e06" p-id="902"></path><path d="M421.0688 696.32a70.8096 70.8096 0 0 0 99.9424 0l216.576-216.576a40.98048 40.98048 0 1 0-57.9584-57.9584L512 589.2608V40.96a40.96 40.96 0 0 0-81.92 0v548.3008L262.4 421.5808a40.96 40.96 0 0 0-57.9072 57.9584z" fill="#d81e06" p-id="903"></path></svg>